<?xml version="1.0" standalone="no"?>
<!DOCTYPE svg PUBLIC "-//W3C//DTD SVG 20010904//EN"
 "http://www.w3.org/TR/2001/REC-SVG-20010904/DTD/svg10.dtd">
<svg version="1.0" xmlns="http://www.w3.org/2000/svg"
 width="770.000000pt" height="770.000000pt" viewBox="0 0 770.000000 770.000000"
 preserveAspectRatio="xMidYMid meet">
<metadata>
Created by potrace 1.14, written by Peter Selinger 2001-2017
</metadata>
<g transform="translate(0.000000,770.000000) scale(0.100000,-0.100000)"
fill="#000000" stroke="none">
<path d="M0 3850 l0 -3850 3850 0 3850 0 0 3850 0 3850 -3850 0 -3850 0 0
-3850z m5872 3257 c69 -34 142 -113 163 -177 13 -40 15 -211 13 -1406 l-3
-1359 -27 -47 c-39 -65 -122 -135 -182 -153 -42 -13 -166 -15 -778 -15 l-729
0 -24 -25 c-25 -24 -25 -26 -25 -203 0 -231 -4 -225 139 -232 93 -5 103 -8
129 -33 23 -24 27 -35 27 -87 0 -54 -3 -63 -33 -92 l-32 -33 -710 0 -710 0
-32 33 c-29 29 -33 39 -33 87 0 48 4 58 32 87 31 31 37 33 129 38 137 7 134 3
134 230 0 160 -2 180 -19 201 l-19 24 -754 5 -753 5 -53 29 c-60 34 -111 85
-144 148 l-23 43 0 1370 c0 1324 1 1371 19 1405 49 91 122 154 204 176 37 10
454 12 2042 11 l1995 -2 57 -28z m-2176 -4693 c134 -23 263 -75 284 -113 5
-11 10 -65 10 -121 0 -95 -2 -102 -26 -126 -19 -20 -31 -24 -52 -19 -15 3 -31
11 -37 16 -5 6 -12 54 -13 107 l-4 97 -41 17 c-96 38 -198 53 -362 53 -138 0
-170 -4 -233 -23 -124 -39 -191 -120 -192 -231 0 -148 103 -219 417 -286 350
-75 477 -140 549 -282 27 -53 29 -67 29 -163 0 -124 -19 -173 -95 -249 -102
-101 -222 -141 -455 -148 -135 -4 -180 -2 -290 17 -128 22 -229 53 -279 85
-26 17 -26 19 -26 139 0 66 4 127 8 133 4 7 22 15 39 19 24 5 36 1 52 -15 18
-18 21 -33 21 -111 l0 -90 38 -16 c96 -40 203 -57 367 -58 178 -1 270 15 359
62 155 83 194 285 78 405 -70 72 -162 108 -432 167 -205 44 -296 77 -386 136
-42 28 -60 49 -84 98 -27 54 -31 73 -31 145 0 101 19 164 68 221 49 57 113 96
198 121 129 39 346 44 521 13z m-1438 -20 c101 -21 175 -58 222 -112 57 -64
75 -126 75 -252 -1 -94 -3 -110 -28 -157 -14 -28 -49 -71 -77 -95 l-50 -43 50
-25 c144 -73 210 -214 189 -408 -19 -174 -128 -281 -332 -323 -79 -16 -137
-19 -419 -19 -327 0 -327 0 -342 22 -14 20 -16 101 -16 675 l0 653 -74 0 c-79
0 -106 13 -106 50 0 10 7 26 16 34 23 24 778 24 892 0z m2233 3 c8 -7 145
-190 303 -407 159 -217 296 -403 305 -412 15 -16 35 9 301 375 157 215 298
406 314 424 l28 33 127 0 c69 0 131 -4 137 -8 22 -14 27 -53 8 -73 -14 -16
-31 -19 -101 -19 l-83 0 0 -607 c0 -335 4 -614 9 -621 5 -9 39 -16 90 -21 82
-7 100 -16 101 -50 0 -8 -7 -23 -17 -33 -23 -26 -171 -25 -230 1 -76 35 -73
11 -73 631 0 347 -4 550 -10 548 -5 -1 -124 -160 -265 -353 -141 -192 -266
-360 -277 -372 -12 -13 -33 -23 -49 -23 -34 0 -28 -7 -340 420 l-244 334 -5
-595 c-5 -653 -3 -629 -66 -629 -67 0 -64 -30 -64 707 l0 663 -83 0 c-90 0
-107 8 -107 50 0 14 5 31 12 38 17 17 257 16 279 -1z"/>
<path d="M1871 6872 c-19 -10 -43 -34 -53 -53 -17 -32 -18 -92 -18 -1279 0
-1231 0 -1245 20 -1278 41 -67 -104 -62 2000 -60 l1910 3 32 33 33 32 3 1263
c2 1252 2 1262 -18 1295 -41 66 101 62 -1982 62 -1815 0 -1895 -1 -1927 -18z
m2288 -460 c49 -26 74 -75 67 -133 -3 -27 -124 -343 -302 -790 -337 -842 -328
-824 -423 -824 -44 0 -55 4 -83 33 -31 31 -33 36 -32 105 1 70 8 90 292 796
160 398 302 740 316 761 25 37 75 69 111 70 11 0 36 -8 54 -18z m-979 -267
c54 -51 52 -133 -5 -189 -18 -18 -173 -111 -344 -206 -181 -100 -313 -179
-316 -190 -3 -9 -3 -24 1 -33 3 -9 137 -89 297 -178 161 -89 311 -175 333
-190 43 -29 74 -80 74 -121 0 -37 -34 -90 -71 -110 -66 -37 -87 -28 -567 238
-249 139 -458 261 -477 280 -58 58 -59 140 -1 196 32 31 897 519 941 531 45
13 106 0 135 -28z m1838 -221 c249 -139 458 -261 477 -280 61 -60 59 -141 -5
-202 -40 -39 -869 -504 -933 -524 -49 -15 -99 -3 -133 33 -25 27 -29 38 -29
89 0 55 3 62 35 94 19 20 169 109 335 202 165 91 306 171 313 177 7 6 12 22
10 36 -3 23 -39 46 -299 191 -163 91 -314 177 -336 192 -42 27 -73 79 -73 120
0 37 34 90 71 110 66 37 87 28 567 -238z"/>
<path d="M3595 3925 c-25 -24 -25 -26 -25 -205 0 -244 -14 -230 230 -230 179
0 181 0 205 25 25 24 25 26 25 205 0 244 14 230 -230 230 -179 0 -181 0 -205
-25z"/>
<path d="M1660 2046 l0 -267 288 3 c324 3 337 6 419 84 102 97 91 299 -22 376
-73 50 -135 59 -422 65 l-263 6 0 -267z"/>
<path d="M1660 1365 l0 -305 220 0 c365 0 486 23 567 106 46 47 61 87 70 180
11 116 -33 216 -117 269 -77 49 -129 55 -447 55 l-293 0 0 -305z"/>
</g>
</svg>
